<?xml version="1.0" encoding="UTF-8" standalone="no"?>
<svg width="100%" height="100%" viewBox="0 0 3321 1090" version="1.1" xmlns="http://www.w3.org/2000/svg" xmlns:xlink="http://www.w3.org/1999/xlink" xml:space="preserve" xmlns:serif="http://www.serif.com/" style="fill-rule:evenodd;clip-rule:evenodd;">
    <g id="Logo">
        <g id="Node">
            <path id="Background_4_" d="M232.6,891.9L66,795.5L66,283.5L514,29.3L955,282.4L955,795.4L514,1053.3L232.6,891.9" style="fill:url(#_Linear1);fill-rule:nonzero;stroke:url(#_Linear2);stroke-width:40px;"/>
        </g>
        <g id="Passkit">
            <path id="Rettangolo_arrotondato_1_1_" d="M265,333.6L759,333.6C778.3,333.6 794,349.3 794,368.6L794,696.6C794,724.2 771.6,746.6 744,746.6L280,746.6C252.4,746.6 230,724.2 230,696.6L230,368.6C230,349.2 245.7,333.6 265,333.6Z" style="fill:url(#_Linear3);fill-rule:nonzero;"/>
            <path id="Rettangolo_arrotondato_2_6_" d="M268.1,362.5L756,362.5C764.3,362.5 771.1,369.2 771.1,377.5L771.1,585.2L253,585.2L253,377.5C253,369.2 259.7,362.5 268.1,362.5Z" style="fill:rgb(88,152,197);fill-rule:nonzero;"/>
            <path id="Rettangolo_arrotondato_2_5_" d="M268.1,404.6L756,404.6C764.3,404.6 771.1,411.3 771.1,419.6L771.1,627.3L253,627.3L253,419.6C253,411.3 259.7,404.6 268.1,404.6Z" style="fill:rgb(243,179,63);fill-rule:nonzero;"/>
            <path id="Rettangolo_arrotondato_2_copia_3_" d="M268.1,449.7L756,449.7C764.3,449.7 771.1,456.4 771.1,464.7L771.1,672.5L253,672.5L253,464.7C253,456.4 259.7,449.7 268.1,449.7Z" style="fill:rgb(113,187,80);fill-rule:nonzero;"/>
            <path id="Rettangolo_arrotondato_2_copia_2_3_" d="M268.1,495.8L756,495.8C764.3,495.8 771.1,501.6 771.1,508.7L771.1,687.3L253,687.3L253,508.7C253,501.6 259.7,495.8 268.1,495.8Z" style="fill:rgb(224,117,101);fill-rule:nonzero;"/>
            <path id="Rettangolo_1_3_" d="M250.9,544.6L429.7,544.6C463.8,544.6 479.1,588.7 512.6,588.8C546.1,588.8 562.4,544.6 596.3,544.6L772.1,544.6L772.1,697.1C772.1,711.8 760.4,723.6 746,723.6L250.9,723.6L250.9,544.6Z" style="fill:url(#_Linear4);fill-rule:nonzero;"/>
        </g>
    </g>
    <g id="Passkit-generator">
        <path d="M1143,536.3L1143,606L1136.9,606L1136.9,441.1L1188.3,441.1C1205.1,441.1 1218.2,445.4 1227.5,453.8C1236.8,462.3 1241.5,474.1 1241.5,489.1C1241.5,504 1237,515.6 1227.8,523.7C1218.8,531.8 1205.8,536 1189.1,536.1L1143,536.3ZM1143,530.2L1188.4,530.2C1203.2,530.2 1214.8,526.6 1223,519.4C1231.2,512.2 1235.4,502.3 1235.4,489.4C1235.4,476.1 1231.2,465.8 1223,458.4C1214.8,451 1203.2,447.3 1188.4,447.3L1143,447.3L1143,530.2Z" style="fill:white;fill-rule:nonzero;"/>
        <path d="M1350.8,605.9C1349.3,600.7 1348.5,593.3 1348.5,583.5C1343.6,591.4 1337,597.4 1328.7,601.7C1320.4,606 1310.9,608.2 1300.3,608.2C1288.9,608.2 1279.9,605.1 1273,598.9C1266,592.8 1262.7,584.8 1262.7,574.8C1262.7,563.6 1267.8,554.5 1277.9,547.8C1288.1,541.1 1301.5,537.6 1318.3,537.5L1348.5,537.5L1348.5,519.7C1348.5,509.4 1345.3,501.5 1338.9,495.8C1332.5,490.1 1323.3,487.3 1311.2,487.3C1300.1,487.3 1290.7,490.2 1283.3,495.9C1275.9,501.6 1272.1,508.8 1272.1,517.2L1266,517C1266,507 1270.4,498.6 1279.1,491.6C1287.9,484.6 1298.6,481.2 1311.2,481.2C1324.4,481.2 1334.8,484.4 1342.6,491C1350.4,497.6 1354.4,506.9 1354.6,518.9L1354.6,577.4C1354.6,590.8 1355.6,600 1357.7,604.7L1357.7,605.7L1350.8,605.9ZM1300.4,602C1311.9,602 1321.7,599.5 1329.9,594.4C1338.1,589.3 1344.4,582.1 1348.6,572.7L1348.6,543.6L1320.3,543.6C1302.8,543.6 1289.4,547.1 1280.1,554C1272.6,559.7 1268.7,566.7 1268.7,575.2C1268.7,582.6 1271.7,589 1277.6,594.2C1283.7,599.5 1291.2,602 1300.4,602Z" style="fill:white;fill-rule:nonzero;"/>
        <path d="M1469.5,575.9C1469.5,561.1 1456.9,551 1431.5,545.5C1416.2,542.3 1405.7,538.1 1399.8,533C1393.9,527.9 1390.9,521 1390.9,512C1390.9,503.1 1394.7,495.7 1402.3,489.9C1409.8,484.1 1419.8,481.2 1431.8,481.2C1445,481.2 1455.5,484.3 1463.5,490.7C1471.5,497 1475.5,505.5 1475.5,516.2L1469.2,516.2C1469.2,508 1465.7,501.1 1458.8,495.6C1451.9,490.1 1442.8,487.4 1431.7,487.4C1421,487.4 1412.5,489.7 1406.2,494.5C1399.9,499.1 1396.8,505 1396.8,512C1396.8,517.6 1398,521.8 1400.3,525C1402.6,528.2 1406.4,530.9 1411.8,533.5C1417.2,536.1 1424.8,538.5 1434.9,540.8C1445,543.1 1453,545.9 1458.9,549C1464.8,552.1 1469.1,556 1471.6,560.2C1474.3,564.5 1475.5,569.8 1475.5,576.1C1475.5,585.7 1471.6,593.5 1463.6,599.4C1455.6,605.3 1445.3,608.2 1432.4,608.2C1418.7,608.2 1407.6,605.1 1399.2,598.8C1390.7,592.5 1386.6,584.6 1386.6,574.7L1392.7,574.7C1393.3,583.3 1397.1,590 1404.1,594.7C1411.1,599.4 1420.6,601.9 1432.5,601.9C1443.4,601.9 1452.3,599.4 1459.1,594.3C1466,589.3 1469.5,583.1 1469.5,575.9Z" style="fill:white;fill-rule:nonzero;"/>
        <path d="M1584.8,575.9C1584.8,561.1 1572.2,551 1546.8,545.5C1531.5,542.3 1521,538.1 1515.1,533C1509.2,527.9 1506.2,521 1506.2,512C1506.2,503.1 1510,495.7 1517.6,489.9C1525.1,484.1 1535.1,481.2 1547.1,481.2C1560.3,481.2 1570.8,484.3 1578.8,490.7C1586.8,497 1590.8,505.5 1590.8,516.2L1584.5,516.2C1584.5,508 1581,501.1 1574.1,495.6C1567.1,490 1558.1,487.4 1547,487.4C1536.3,487.4 1527.8,489.7 1521.5,494.5C1515.2,499.1 1512.1,505 1512.1,512C1512.1,517.6 1513.3,521.8 1515.6,525C1517.9,528.1 1521.7,530.9 1527.1,533.5C1532.4,536 1540.1,538.5 1550.2,540.8C1560.3,543.1 1568.3,545.9 1574.2,549C1580.1,552.1 1584.4,556 1586.9,560.2C1589.6,564.5 1590.8,569.8 1590.8,576.1C1590.8,585.7 1586.9,593.5 1578.9,599.4C1570.9,605.3 1560.6,608.2 1547.7,608.2C1534,608.2 1522.9,605.1 1514.5,598.8C1506,592.5 1501.9,584.6 1501.9,574.7L1508,574.7C1508.6,583.3 1512.4,590 1519.4,594.7C1526.4,599.4 1535.9,601.9 1547.8,601.9C1558.7,601.9 1567.6,599.4 1574.4,594.3C1581.3,589.3 1584.8,583.1 1584.8,575.9Z" style="fill:white;fill-rule:nonzero;"/>
        <path d="M1648.7,539.7L1648.5,539.9L1630.8,555.2L1630.8,606L1624.7,606L1624.7,432.2L1630.8,432.2L1630.8,548.6L1645.2,535L1700.8,483.6L1709.5,483.6L1653.3,535.7L1713,606L1705.1,606L1648.7,539.7Z" style="fill:white;fill-rule:nonzero;"/>
        <path d="M1732.5,445.3C1732.5,443.6 1733.1,442.1 1734.4,440.8C1735.6,439.5 1737.1,438.9 1738.8,438.9C1740.5,438.9 1742,439.5 1743.3,440.8C1744.6,442.1 1745.2,443.6 1745.2,445.3C1745.2,447 1744.6,448.5 1743.3,449.7C1742,450.9 1740.5,451.6 1738.8,451.6C1737.1,451.6 1735.6,451 1734.4,449.7C1733,448.4 1732.5,447 1732.5,445.3ZM1741.7,605.9L1735.6,605.9L1735.6,483.5L1741.7,483.5L1741.7,605.9Z" style="fill:white;fill-rule:nonzero;"/>
        <path d="M1795.6,450.4L1795.6,483.4L1823.4,483.4L1823.4,489.5L1795.6,489.5L1795.6,576.5C1795.6,585.2 1797,591.6 1799.9,595.7C1802.7,599.9 1807.4,602 1814.1,602C1817.5,602 1821.4,601.7 1826.1,601L1827.1,606.8C1824.7,607.7 1820.4,608.2 1814.4,608.2C1805.5,608.2 1799.1,605.8 1795.3,600.8C1791.5,595.8 1789.5,588.1 1789.4,577.4L1789.4,489.6L1766.8,489.6L1766.8,483.5L1789.4,483.5L1789.4,450.5L1795.6,450.4Z" style="fill:white;fill-rule:nonzero;"/>
        <rect x="1842.6" y="527.5" width="53.2" height="6.1" style="fill:white;fill-rule:nonzero;"/>
        <path d="M2004.6,616.9C2005.2,614.1 2005.8,610.3 2005.6,605.5L2005.6,586.7C2001.4,593.7 1995.6,599 1988.5,602.7C1981.3,606.4 1973.1,608.3 1964.1,608.3C1950,608.3 1938.7,602.7 1930.5,591.4C1922.3,580.2 1918.2,564.8 1918.2,545.2L1918.2,543.6C1918.2,524 1922.3,508.8 1930.5,497.8C1938.7,486.8 1950,481.3 1964.3,481.3C1973.5,481.3 1981.6,483.4 1988.6,487.6C1995.6,491.8 2001.3,497.9 2005.6,506L2005.6,483.6L2011.9,483.6L2011.9,603.8C2012,609.1 2011.4,613.5 2010.9,616.8M2004.2,635.4C2002.2,638.6 2000.3,640.8 1999.3,641.8C1999.3,641.8 1995.9,645.5 1991.7,648.4C1984.5,653.1 1975.8,655.5 1965.5,655.5C1957.3,655.5 1949.7,653.8 1942.9,650.2C1936.1,646.6 1926,638.7 1922.3,630.9L1925.9,626.3C1930.5,634.6 1939.8,641.5 1945.4,644.7C1951.1,647.9 1957.7,649.4 1965.3,649.4C1977.9,649.4 1987.7,645.6 1994.7,637.9C1994.9,637.7 1995.7,636.7 1996.8,635.5M1924.3,546C1924.3,563.5 1927.8,577.3 1934.7,587.2C1941.7,597.2 1951.4,602.1 1963.9,602.1C1974.2,602.1 1983,599.7 1990.3,594.9C1997.6,590.2 2002.7,583.4 2005.7,574.7L2005.7,519.2C1999.1,498 1985.2,487.5 1964.2,487.5C1951.6,487.5 1941.8,492.5 1934.9,502.3C1927.8,512.3 1924.3,526.7 1924.3,546Z" style="fill:white;fill-rule:nonzero;"/>
        <path d="M2095,608.2C2085.2,608.2 2076,605.5 2067.8,600.2C2059.6,594.9 2053.1,587.6 2048.5,578.3C2043.9,569 2041.4,558.7 2041.4,547.4L2041.4,542.3C2041.4,530.9 2043.7,520.6 2048.2,511.1C2052.7,501.7 2059,494.3 2066.9,489.1C2074.8,483.8 2083.5,481.2 2092.8,481.2C2106.5,481.2 2117.6,486.1 2126.3,495.8C2135,505.5 2139.3,518.3 2139.3,534.1L2139.3,540.6L2047.5,540.6L2047.5,547.3C2047.5,557.3 2049.6,566.4 2053.8,574.9C2058,583.4 2063.8,590 2071.1,594.8C2078.4,599.6 2086.4,602 2095.1,602C2103.3,602 2110.3,600.6 2116.1,597.9C2121.9,595.2 2127,590.9 2131.4,585.3L2135.7,588.3C2126.5,601.6 2112.9,608.2 2095,608.2ZM2092.8,487.3C2080.9,487.3 2070.8,491.7 2062.4,500.6C2054.1,509.5 2049.2,520.8 2047.8,534.4L2133.1,534.4L2133.1,533C2133.1,524.7 2131.4,517 2127.9,509.8C2124.4,502.6 2119.6,497.2 2113.4,493.1C2107.2,489.3 2100.3,487.3 2092.8,487.3Z" style="fill:white;fill-rule:nonzero;"/>
        <path d="M2173.8,512C2177.9,502.5 2183.6,495 2191.4,489.5C2199.2,483.9 2207.7,481.3 2217.2,481.3C2230.3,481.3 2240,485 2246.4,492.4C2252.8,499.8 2256,511.1 2256,526.1L2256,606L2249.9,606L2249.9,525.9C2249.8,512.8 2247.1,503.1 2241.9,496.8C2236.6,490.5 2228.2,487.4 2216.8,487.4C2206.3,487.4 2197.1,491.1 2189.3,498.6C2181.5,506.1 2176.3,515.7 2173.7,527.6L2173.7,606L2167.6,606L2167.6,483.5L2173.7,483.5L2173.8,512Z" style="fill:white;fill-rule:nonzero;"/>
        <path d="M2338.6,608.2C2328.8,608.2 2319.6,605.5 2311.4,600.2C2303.2,594.9 2296.7,587.6 2292.1,578.3C2287.5,569 2285,558.7 2285,547.4L2285,542.3C2285,530.9 2287.3,520.6 2291.8,511.1C2296.3,501.7 2302.6,494.3 2310.5,489.1C2318.4,483.8 2327.1,481.2 2336.4,481.2C2350.1,481.2 2361.2,486.1 2369.9,495.8C2378.6,505.5 2382.9,518.3 2382.9,534.1L2382.9,540.6L2291.1,540.6L2291.1,547.3C2291.1,557.3 2293.2,566.4 2297.4,574.9C2301.6,583.4 2307.4,590 2314.7,594.8C2322,599.7 2330,602 2338.7,602C2346.9,602 2353.9,600.6 2359.7,597.9C2365.5,595.2 2370.6,590.9 2375,585.3L2379.3,588.3C2370,601.6 2356.5,608.2 2338.6,608.2ZM2336.3,487.3C2324.4,487.3 2314.3,491.7 2305.9,500.6C2297.6,509.5 2292.7,520.8 2291.3,534.4L2376.6,534.4L2376.6,533C2376.6,524.7 2374.9,517 2371.4,509.8C2367.9,502.6 2363.1,497.2 2356.9,493.1C2350.7,489.3 2343.9,487.3 2336.3,487.3Z" style="fill:white;fill-rule:nonzero;"/>
        <path d="M2465.2,488L2457.3,487.3C2446.9,487.3 2438.2,490.7 2431.1,497.4C2424,504.1 2419.5,513.6 2417.3,525.7L2417.3,605.9L2411.2,605.9L2411.2,483.5L2417.3,483.5L2417.3,509C2420.7,500.4 2425.6,493.7 2432.2,488.7C2438.8,483.7 2447.1,481.3 2457.2,481.3C2460.8,481.3 2463.6,481.8 2465.8,482.6L2465.2,488Z" style="fill:white;fill-rule:nonzero;"/>
        <path d="M2563.3,605.9C2561.8,600.7 2561,593.3 2561,583.5C2556.1,591.4 2549.5,597.4 2541.2,601.7C2532.9,606 2523.4,608.2 2512.8,608.2C2501.4,608.2 2492.4,605.1 2485.5,598.9C2478.5,592.8 2475.2,584.8 2475.2,574.8C2475.2,563.6 2480.3,554.5 2490.4,547.8C2500.6,541.1 2514,537.6 2530.8,537.5L2561,537.5L2561,519.7C2561,509.4 2557.8,501.5 2551.4,495.8C2545,490.1 2535.8,487.3 2523.7,487.3C2512.6,487.3 2503.2,490.2 2495.8,495.9C2488.4,501.6 2484.6,508.8 2484.6,517.2L2478.5,517C2478.5,507 2482.9,498.6 2491.6,491.6C2500.4,484.6 2511.1,481.2 2523.7,481.2C2536.9,481.2 2547.3,484.4 2555.1,491C2562.9,497.6 2566.9,506.9 2567.1,518.9L2567.1,577.4C2567.1,590.8 2568.1,600 2570.2,604.7L2570.2,605.7L2563.3,605.9ZM2512.9,602C2524.4,602 2534.2,599.5 2542.4,594.4C2550.6,589.3 2556.9,582.1 2561.1,572.7L2561.1,543.6L2532.8,543.6C2515.3,543.6 2501.9,547.1 2492.6,554C2485.1,559.7 2481.2,566.7 2481.2,575.2C2481.2,582.6 2484.2,589 2490.1,594.2C2496.2,599.5 2503.8,602 2512.9,602Z" style="fill:white;fill-rule:nonzero;"/>
        <path d="M2620.2,450.4L2620.2,483.4L2648,483.4L2648,489.5L2620.2,489.5L2620.2,576.5C2620.2,585.2 2621.6,591.6 2624.5,595.7C2627.3,599.9 2632,602 2638.7,602C2642.1,602 2646,601.7 2650.7,601L2651.7,606.8C2649.3,607.7 2645,608.2 2639,608.2C2630.1,608.2 2623.7,605.8 2619.9,600.8C2616.1,595.8 2614.1,588.1 2614,577.4L2614,489.6L2591.4,489.6L2591.4,483.5L2614,483.5L2614,450.5L2620.2,450.4Z" style="fill:white;fill-rule:nonzero;"/>
        <path d="M2668.3,542.3C2668.3,530.6 2670.5,520.1 2675,510.8C2679.5,501.5 2685.8,494.2 2694,489C2702.2,483.8 2711.5,481.2 2721.8,481.2C2732.1,481.2 2741.3,483.7 2749.4,488.7C2757.5,493.8 2763.9,500.9 2768.5,510.2C2773,519.5 2775.3,529.9 2775.5,541.6L2775.5,547C2775.5,558.8 2773.3,569.2 2768.8,578.5C2764.4,587.8 2758,595.1 2749.8,600.3C2741.6,605.5 2732.3,608.1 2722,608.1C2711.7,608.1 2702.4,605.6 2694.2,600.5C2686,595.4 2679.7,588.2 2675.1,579C2670.6,569.7 2668.3,559.4 2668.1,547.8L2668.1,542.2L2668.3,542.2L2668.3,542.3ZM2674.4,547C2674.4,557.2 2676.4,566.5 2680.4,575C2684.5,583.5 2690,590.1 2697.3,594.8C2704.5,599.5 2712.7,602 2722,602C2735.9,602 2747.4,596.8 2756.1,586.2C2764.9,575.8 2769.3,562.2 2769.3,545.7L2769.3,542.2C2769.3,532.1 2767.2,522.9 2763.2,514.4C2759.1,505.8 2753.5,499.2 2746.3,494.5C2739.1,489.8 2730.9,487.3 2721.9,487.3C2708,487.3 2696.5,492.6 2687.7,503.3C2678.9,514 2674.5,527.3 2674.5,543.5L2674.4,547Z" style="fill:white;fill-rule:nonzero;"/>
        <path d="M2859.1,488L2851.2,487.3C2840.8,487.3 2832.1,490.7 2825,497.4C2817.9,504.1 2813.4,513.6 2811.2,525.7L2811.2,605.9L2805.1,605.9L2805.1,483.5L2811.2,483.5L2811.2,509C2814.6,500.4 2819.5,493.7 2826.1,488.7C2832.7,483.7 2841,481.3 2851.1,481.3C2854.7,481.3 2857.5,481.8 2859.7,482.6L2859.1,488Z" style="fill:white;fill-rule:nonzero;"/>
    </g>
    <rect id="Tracciato_barra_esterno_1_" x="1114.6" y="616.9" width="2189.2" height="17.6" style="fill:url(#_Linear5);fill-rule:nonzero;"/>
    <g id="For-Node-JS" serif:id="For Node JS">
        <path d="M2507.1,711.4L2507.1,676.1L2500.7,676.1L2500.7,674.2L2507.1,674.2L2507.1,668.8C2507.1,665.4 2508,662.7 2509.7,660.8C2511.4,658.9 2513.8,657.9 2516.8,657.9C2518.5,657.9 2520,658.1 2521.2,658.5L2520.9,660.3C2519.7,660 2518.4,659.8 2516.8,659.8C2514.4,659.8 2512.4,660.6 2511,662.2C2509.6,663.8 2508.9,666 2508.9,669L2508.9,674.3L2518.7,674.3L2518.7,676.2L2508.9,676.2L2508.9,711.4L2507.1,711.4Z" style="fill:white;fill-rule:nonzero;"/>
        <path d="M2523.6,692C2523.6,688.5 2524.3,685.3 2525.6,682.5C2527,679.7 2528.9,677.5 2531.4,675.9C2533.9,674.3 2536.7,673.5 2539.8,673.5C2542.9,673.5 2545.7,674.3 2548.2,675.8C2550.7,677.3 2552.6,679.5 2554,682.3C2555.4,685.1 2556.1,688.3 2556.1,691.8L2556.1,693.4C2556.1,697 2555.4,700.1 2554.1,703C2552.8,705.8 2550.8,708 2548.4,709.6C2546,711.2 2543.1,712 2540,712C2536.9,712 2534.1,711.2 2531.6,709.7C2529.1,708.1 2527.2,706 2525.8,703.2C2524.4,700.4 2523.7,697.3 2523.7,693.8L2523.7,692L2523.6,692ZM2525.5,693.5C2525.5,696.6 2526.1,699.4 2527.3,702C2528.5,704.6 2530.2,706.6 2532.4,708C2534.6,709.4 2537.1,710.2 2539.9,710.2C2544.1,710.2 2547.6,708.6 2550.2,705.4C2552.9,702.2 2554.2,698.1 2554.2,693.1L2554.2,692C2554.2,689 2553.6,686.2 2552.3,683.6C2551.1,681 2549.4,679 2547.2,677.6C2545,676.2 2542.5,675.4 2539.8,675.4C2535.6,675.4 2532.1,677 2529.5,680.2C2526.8,683.4 2525.5,687.5 2525.5,692.4L2525.5,693.5Z" style="fill:white;fill-rule:nonzero;"/>
        <path d="M2581.4,675.6L2579,675.4C2575.8,675.4 2573.2,676.4 2571.1,678.5C2569,680.5 2567.6,683.4 2566.9,687.1L2566.9,711.4L2565,711.4L2565,674.3L2566.9,674.3L2566.9,682C2567.9,679.4 2569.4,677.4 2571.4,675.9C2573.4,674.4 2575.9,673.6 2579,673.6C2580.1,673.6 2580.9,673.7 2581.6,674L2581.4,675.6Z" style="fill:white;fill-rule:nonzero;"/>
        <path d="M2642.2,711.3L2640.3,711.3L2608.1,664.6L2608.1,711.3L2606.2,711.3L2606.2,661.4L2608.1,661.4L2640.3,708L2640.3,661.4L2642.2,661.4L2642.2,711.3Z" style="fill:white;fill-rule:nonzero;"/>
        <path d="M2652.1,692C2652.1,688.5 2652.8,685.3 2654.1,682.5C2655.5,679.7 2657.4,677.5 2659.9,675.9C2662.4,674.3 2665.2,673.5 2668.3,673.5C2671.4,673.5 2674.2,674.3 2676.7,675.8C2679.2,677.3 2681.1,679.5 2682.5,682.3C2683.9,685.1 2684.6,688.3 2684.6,691.8L2684.6,693.4C2684.6,697 2683.9,700.1 2682.6,703C2681.3,705.8 2679.3,708 2676.9,709.6C2674.4,711.2 2671.6,712 2668.5,712C2665.4,712 2662.6,711.2 2660.1,709.7C2657.6,708.1 2655.7,706 2654.3,703.2C2652.9,700.4 2652.2,697.3 2652.2,693.8L2652.2,692L2652.1,692ZM2654,693.5C2654,696.6 2654.6,699.4 2655.8,702C2657,704.6 2658.7,706.6 2660.9,708C2663.1,709.4 2665.6,710.2 2668.4,710.2C2672.6,710.2 2676.1,708.6 2678.7,705.4C2681.4,702.2 2682.7,698.1 2682.7,693.1L2682.7,692C2682.7,689 2682.1,686.2 2680.8,683.6C2679.6,681 2677.9,679 2675.7,677.6C2673.5,676.2 2671,675.4 2668.3,675.4C2664.1,675.4 2660.6,677 2658,680.2C2655.3,683.4 2654,687.5 2654,692.4L2654,693.5Z" style="fill:white;fill-rule:nonzero;"/>
        <path d="M2691.8,692.4C2691.8,686.5 2693,681.9 2695.5,678.5C2698,675.2 2701.4,673.5 2705.7,673.5C2708.5,673.5 2710.9,674.1 2713.1,675.4C2715.2,676.7 2717,678.5 2718.3,681L2718.3,658.6L2720.2,658.6L2720.2,711.2L2718.3,711.2L2718.3,705.3C2717,707.4 2715.3,709 2713.1,710.2C2710.9,711.4 2708.4,711.9 2705.6,711.9C2701.3,711.9 2697.9,710.2 2695.4,706.8C2692.9,703.4 2691.7,698.7 2691.7,692.8L2691.7,692.4L2691.8,692.4ZM2693.8,693.1C2693.8,698.4 2694.8,702.5 2696.9,705.6C2699,708.6 2701.9,710.2 2705.7,710.2C2708.8,710.2 2711.4,709.5 2713.5,708.2C2715.7,706.8 2717.3,704.8 2718.3,702.2L2718.3,684.8C2716.2,678.6 2712,675.4 2705.7,675.4C2701.9,675.4 2699,676.9 2696.8,679.9C2694.8,682.9 2693.8,687.3 2693.8,693.1Z" style="fill:white;fill-rule:nonzero;"/>
        <path d="M2745.3,712C2742.3,712 2739.6,711.2 2737.1,709.6C2734.6,708 2732.6,705.8 2731.2,703C2729.8,700.2 2729.1,697.1 2729.1,693.6L2729.1,692C2729.1,688.6 2729.8,685.4 2731.2,682.6C2732.6,679.7 2734.5,677.5 2736.9,675.9C2739.3,674.3 2741.9,673.5 2744.7,673.5C2748.8,673.5 2752.2,675 2754.8,677.9C2757.4,680.8 2758.7,684.7 2758.7,689.5L2758.7,691.5L2730.9,691.5L2730.9,693.5C2730.9,696.5 2731.5,699.3 2732.8,701.9C2734.1,704.5 2735.8,706.5 2738,707.9C2740.2,709.3 2742.6,710.1 2745.2,710.1C2747.7,710.1 2749.8,709.7 2751.6,708.9C2753.3,708.1 2754.9,706.8 2756.2,705.1L2757.5,706C2754.8,710 2750.7,712 2745.3,712ZM2744.6,675.4C2741,675.4 2737.9,676.7 2735.4,679.4C2732.9,682.1 2731.4,685.5 2731,689.7L2756.8,689.7L2756.8,689.3C2756.8,686.8 2756.3,684.5 2755.2,682.3C2754.1,680.1 2752.7,678.5 2750.8,677.3C2749,676 2746.9,675.4 2744.6,675.4Z" style="fill:white;fill-rule:nonzero;"/>
        <path d="M2766.5,709.6C2766.5,709.1 2766.7,708.6 2767,708.2C2767.4,707.8 2767.8,707.6 2768.3,707.6C2768.8,707.6 2769.3,707.8 2769.7,708.2C2770.1,708.6 2770.3,709 2770.3,709.6C2770.3,710.1 2770.1,710.6 2769.7,710.9C2769.3,711.3 2768.9,711.4 2768.3,711.4C2767.8,711.4 2767.3,711.2 2767,710.9C2766.6,710.6 2766.5,710.1 2766.5,709.6Z" style="fill:white;fill-rule:nonzero;"/>
        <path d="M2806.5,661.4L2808.4,661.4L2808.4,696.1C2808.4,700.9 2807.1,704.8 2804.5,707.6C2801.9,710.5 2798.4,711.9 2794,711.9C2789.3,711.9 2785.8,710.7 2783.3,708.2C2780.8,705.7 2779.6,702.1 2779.6,697.5L2781.5,697.5C2781.5,701.6 2782.5,704.7 2784.6,706.8C2786.7,709 2789.8,710 2794,710C2797.7,710 2800.6,708.8 2803,706.3C2805.3,703.9 2806.5,700.5 2806.6,696.3L2806.6,661.4L2806.5,661.4Z" style="fill:white;fill-rule:nonzero;"/>
        <path d="M2851.7,699.3C2851.7,697.2 2851.2,695.4 2850.2,693.9C2849.2,692.4 2847.6,691.1 2845.5,690C2843.4,688.9 2840.1,687.7 2835.8,686.5C2831.5,685.3 2828.2,684.1 2826.1,682.9C2823.9,681.7 2822.4,680.3 2821.4,678.7C2820.4,677.1 2819.9,675.2 2819.9,672.9C2819.9,669.3 2821.4,666.3 2824.5,664.1C2827.6,661.9 2831.5,660.7 2836.5,660.7C2839.7,660.7 2842.6,661.3 2845.1,662.6C2847.6,663.8 2849.6,665.6 2851,667.8C2852.4,670.1 2853.1,672.6 2853.1,675.4L2851.2,675.4C2851.2,671.7 2849.8,668.6 2847.1,666.2C2844.4,663.8 2840.8,662.6 2836.4,662.6C2832,662.6 2828.5,663.6 2825.8,665.5C2823.1,667.4 2821.7,669.9 2821.7,672.8C2821.7,675.8 2822.9,678.2 2825.2,680C2827.6,681.8 2831.4,683.4 2836.8,684.8C2842.2,686.2 2846.2,687.8 2848.7,689.7C2851.9,692.1 2853.5,695.2 2853.5,699.2C2853.5,701.7 2852.8,703.9 2851.4,705.9C2850,707.8 2848,709.3 2845.4,710.4C2842.8,711.5 2839.9,712 2836.6,712C2833,712 2829.7,711.4 2826.9,710.2C2824,709 2821.9,707.3 2820.4,705.1C2818.9,702.9 2818.2,700.3 2818.2,697.3L2820.1,697.3C2820.1,701.4 2821.6,704.6 2824.7,706.8C2827.8,709.1 2831.7,710.2 2836.7,710.2C2841.1,710.2 2844.7,709.2 2847.5,707.2C2850.3,705.1 2851.7,702.5 2851.7,699.3Z" style="fill:white;fill-rule:nonzero;"/>
    </g>
    <defs>
        <linearGradient id="_Linear1" x1="0" y1="0" x2="1" y2="0" gradientUnits="userSpaceOnUse" gradientTransform="matrix(889,0,0,889,66,541.3)"><stop offset="0" style="stop-color:rgb(45,41,41);stop-opacity:1"/><stop offset="1" style="stop-color:rgb(63,57,57);stop-opacity:1"/></linearGradient>
        <linearGradient id="_Linear2" x1="0" y1="0" x2="1" y2="0" gradientUnits="userSpaceOnUse" gradientTransform="matrix(875.307,-612.897,612.897,875.307,73.0515,845.668)"><stop offset="0" style="stop-color:rgb(38,49,15);stop-opacity:1"/><stop offset="0.21" style="stop-color:rgb(27,87,10);stop-opacity:1"/><stop offset="0.43" style="stop-color:rgb(17,119,6);stop-opacity:1"/><stop offset="0.64" style="stop-color:rgb(11,143,3);stop-opacity:1"/><stop offset="0.83" style="stop-color:rgb(6,157,1);stop-opacity:1"/><stop offset="1" style="stop-color:rgb(5,162,0);stop-opacity:1"/></linearGradient>
        <linearGradient id="_Linear3" x1="0" y1="0" x2="1" y2="0" gradientUnits="userSpaceOnUse" gradientTransform="matrix(545.14,-381.711,381.711,545.14,240.146,726.85)"><stop offset="0" style="stop-color:rgb(132,132,132);stop-opacity:1"/><stop offset="0.35" style="stop-color:rgb(155,154,151);stop-opacity:1"/><stop offset="1" style="stop-color:rgb(194,192,184);stop-opacity:1"/></linearGradient>
        <linearGradient id="_Linear4" x1="0" y1="0" x2="1" y2="0" gradientUnits="userSpaceOnUse" gradientTransform="matrix(433.833,-303.773,303.773,433.833,291.631,781.77)"><stop offset="0" style="stop-color:rgb(132,132,132);stop-opacity:1"/><stop offset="0.35" style="stop-color:rgb(155,154,151);stop-opacity:1"/><stop offset="1" style="stop-color:rgb(194,192,184);stop-opacity:1"/></linearGradient>
        <linearGradient id="_Linear5" x1="0" y1="0" x2="1" y2="0" gradientUnits="userSpaceOnUse" gradientTransform="matrix(2189.17,0,0,2189.17,1114.62,625.642)"><stop offset="0" style="stop-color:rgb(88,152,197);stop-opacity:0.28"/><stop offset="0.32" style="stop-color:rgb(243,179,63);stop-opacity:0.28"/><stop offset="0.66" style="stop-color:rgb(113,187,80);stop-opacity:0.28"/><stop offset="1" style="stop-color:rgb(224,117,101);stop-opacity:0.28"/></linearGradient>
    </defs>
</svg>
