<?xml version="1.0" encoding="utf-8"?>
<!-- Generator: Adobe Illustrator 21.0.0, SVG Export Plug-In . SVG Version: 6.00 Build 0)  -->
<svg version="1.1" id="Livello_1" xmlns="http://www.w3.org/2000/svg" xmlns:xlink="http://www.w3.org/1999/xlink" x="0px" y="0px"
	 viewBox="0 0 3320.3 1090" style="enable-background:new 0 0 3320.3 1090;" xml:space="preserve">
<style type="text/css">
	.st0{fill:url(#Background_1_);stroke:url(#Background_2_);stroke-width:40;}
	.st1{fill:url(#Rettangolo_arrotondato_1_2_);}
	.st2{fill:#5898C5;}
	.st3{fill:#F3B33F;}
	.st4{fill:#71BB50;}
	.st5{fill:#E07565;}
	.st6{fill:url(#Rettangolo_1_1_);}
	.st7{enable-background:new    ;}
	.st8{opacity:0.28;fill:url(#Tracciato_barra_esterno_2_);enable-background:new    ;}
	.st9{display:none;}
	.st10{fill:url(#SVGID_1_);}
	.st11{fill:url(#SVGID_2_);}
	.st12{fill:url(#SVGID_3_);}
	.st13{fill:url(#SVGID_4_);}
	.st14{fill:url(#SVGID_5_);}
	.st15{fill:url(#SVGID_6_);}
	.st16{fill:url(#SVGID_7_);}
	.st17{fill:url(#SVGID_8_);}
	.st18{fill:url(#SVGID_9_);}
	.st19{fill:url(#SVGID_10_);}
</style>
<g id="Logo">
	<g id="Node">
		
			<linearGradient id="Background_1_" gradientUnits="userSpaceOnUse" x1="66" y1="-453.0503" x2="955" y2="-453.0503" gradientTransform="matrix(1 0 0 1 0 994.3503)">
			<stop  offset="0" style="stop-color:#2D2929"/>
			<stop  offset="1" style="stop-color:#3F3939"/>
		</linearGradient>
		
			<linearGradient id="Background_2_" gradientUnits="userSpaceOnUse" x1="73.0515" y1="1212.3323" x2="948.3587" y2="1825.2291" gradientTransform="matrix(1 0 0 -1 0 2058)">
			<stop  offset="0" style="stop-color:#26310F"/>
			<stop  offset="0.2069" style="stop-color:#1B570A"/>
			<stop  offset="0.4257" style="stop-color:#117706"/>
			<stop  offset="0.6361" style="stop-color:#0B8F03"/>
			<stop  offset="0.8323" style="stop-color:#069D01"/>
			<stop  offset="1" style="stop-color:#05A200"/>
		</linearGradient>
		<path id="Background_4_" class="st0" d="M232.6,891.9L66,795.5v-512L514,29.3l441,253.1v513l-441,257.9L232.6,891.9"/>
		<g id="Livello_4">
		</g>
	</g>
	<g id="Passkit">
		
			<linearGradient id="Rettangolo_arrotondato_1_2_" gradientUnits="userSpaceOnUse" x1="240.1457" y1="1331.1498" x2="785.2859" y2="1712.8608" gradientTransform="matrix(1 0 0 -1 0 2058)">
			<stop  offset="0" style="stop-color:#848484"/>
			<stop  offset="0.3501" style="stop-color:#9B9A97"/>
			<stop  offset="1" style="stop-color:#C2C0B8"/>
		</linearGradient>
		<path id="Rettangolo_arrotondato_1_1_" class="st1" d="M265,333.6h494c19.3,0,35,15.7,35,35l0,0v328c0,27.6-22.4,50-50,50H280
			c-27.6,0-50-22.4-50-50v-328C230,349.2,245.7,333.6,265,333.6L265,333.6z"/>
		<path id="Rettangolo_arrotondato_2_6_" class="st2" d="M268.1,362.5H756c8.3,0,15.1,6.7,15.1,15v207.7l0,0H253l0,0V377.5
			C253,369.2,259.7,362.5,268.1,362.5z"/>
		<path id="Rettangolo_arrotondato_2_5_" class="st3" d="M268.1,404.6H756c8.3,0,15.1,6.7,15.1,15v207.7l0,0H253l0,0V419.6
			C253,411.3,259.7,404.6,268.1,404.6z"/>
		<path id="Rettangolo_arrotondato_2_copia_3_" class="st4" d="M268.1,449.7H756c8.3,0,15.1,6.7,15.1,15v207.8l0,0H253l0,0V464.7
			C253,456.4,259.7,449.7,268.1,449.7z"/>
		<path id="Rettangolo_arrotondato_2_copia_2_3_" class="st5" d="M268.1,495.8H756c8.3,0,15.1,5.8,15.1,12.9v178.6l0,0H253l0,0
			V508.7C253,501.6,259.7,495.8,268.1,495.8z"/>
		
			<linearGradient id="Rettangolo_1_1_" gradientUnits="userSpaceOnUse" x1="291.6308" y1="1276.2303" x2="725.4638" y2="1580.0034" gradientTransform="matrix(1 0 0 -1 0 2058)">
			<stop  offset="0" style="stop-color:#848484"/>
			<stop  offset="0.3501" style="stop-color:#9B9A97"/>
			<stop  offset="1" style="stop-color:#C2C0B8"/>
		</linearGradient>
		<path id="Rettangolo_1_3_" class="st6" d="M250.9,544.6c0,0,68.3,0,178.8,0c34.1,0,49.4,44.1,82.9,44.2
			c33.5,0,49.8-44.2,83.7-44.2h175.8v152.5c0,14.7-11.7,26.5-26.1,26.5H250.9V544.6z"/>
	</g>
</g>
<g id="Scritta">
	<g id="Lettere" class="st7">
		<path d="M1143,536.3V606h-6.1V441.1h51.4c16.8,0,29.9,4.3,39.2,12.7c9.3,8.5,14,20.3,14,35.3c0,14.9-4.5,26.5-13.7,34.6
			c-9,8.1-22,12.3-38.7,12.4L1143,536.3L1143,536.3z M1143,530.2h45.4c14.8,0,26.4-3.6,34.6-10.8c8.2-7.2,12.4-17.1,12.4-30
			c0-13.3-4.2-23.6-12.4-31c-8.2-7.4-19.8-11.1-34.6-11.1H1143V530.2z"/>
		<path d="M1350.8,605.9c-1.5-5.2-2.3-12.6-2.3-22.4c-4.9,7.9-11.5,13.9-19.8,18.2c-8.3,4.3-17.8,6.5-28.4,6.5
			c-11.4,0-20.4-3.1-27.3-9.3c-7-6.1-10.3-14.1-10.3-24.1c0-11.2,5.1-20.3,15.2-27c10.2-6.7,23.6-10.2,40.4-10.3h30.2v-17.8
			c0-10.3-3.2-18.2-9.6-23.9c-6.4-5.7-15.6-8.5-27.7-8.5c-11.1,0-20.5,2.9-27.9,8.6c-7.4,5.7-11.2,12.9-11.2,21.3l-6.1-0.2
			c0-10,4.4-18.4,13.1-25.4c8.8-7,19.5-10.4,32.1-10.4c13.2,0,23.6,3.2,31.4,9.8c7.8,6.6,11.8,15.9,12,27.9v58.5
			c0,13.4,1,22.6,3.1,27.3v1L1350.8,605.9L1350.8,605.9z M1300.4,602c11.5,0,21.3-2.5,29.5-7.6c8.2-5.1,14.5-12.3,18.7-21.7v-29.1
			h-28.3c-17.5,0-30.9,3.5-40.2,10.4c-7.5,5.7-11.4,12.7-11.4,21.2c0,7.4,3,13.8,8.9,19C1283.7,599.5,1291.2,602,1300.4,602z"/>
		<path d="M1469.5,575.9c0-14.8-12.6-24.9-38-30.4c-15.3-3.2-25.8-7.4-31.7-12.5c-5.9-5.1-8.9-12-8.9-21c0-8.9,3.8-16.3,11.4-22.1
			c7.5-5.8,17.5-8.7,29.5-8.7c13.2,0,23.7,3.1,31.7,9.5c8,6.3,12,14.8,12,25.5h-6.3c0-8.2-3.5-15.1-10.4-20.6s-16-8.2-27.1-8.2
			c-10.7,0-19.2,2.3-25.5,7.1c-6.3,4.6-9.4,10.5-9.4,17.5c0,5.6,1.2,9.8,3.5,13s6.1,5.9,11.5,8.5s13,5,23.1,7.3
			c10.1,2.3,18.1,5.1,24,8.2s10.2,7,12.7,11.2c2.7,4.3,3.9,9.6,3.9,15.9c0,9.6-3.9,17.4-11.9,23.3c-8,5.9-18.3,8.8-31.2,8.8
			c-13.7,0-24.8-3.1-33.2-9.4c-8.5-6.3-12.6-14.2-12.6-24.1h6.1c0.6,8.6,4.4,15.3,11.4,20s16.5,7.2,28.4,7.2
			c10.9,0,19.8-2.5,26.6-7.6C1466,589.3,1469.5,583.1,1469.5,575.9z"/>
		<path d="M1584.8,575.9c0-14.8-12.6-24.9-38-30.4c-15.3-3.2-25.8-7.4-31.7-12.5c-5.9-5.1-8.9-12-8.9-21c0-8.9,3.8-16.3,11.4-22.1
			c7.5-5.8,17.5-8.7,29.5-8.7c13.2,0,23.7,3.1,31.7,9.5c8,6.3,12,14.8,12,25.5h-6.3c0-8.2-3.5-15.1-10.4-20.6
			c-7-5.6-16-8.2-27.1-8.2c-10.7,0-19.2,2.3-25.5,7.1c-6.3,4.6-9.4,10.5-9.4,17.5c0,5.6,1.2,9.8,3.5,13c2.3,3.1,6.1,5.9,11.5,8.5
			c5.3,2.5,13,5,23.1,7.3s18.1,5.1,24,8.2c5.9,3.1,10.2,7,12.7,11.2c2.7,4.3,3.9,9.6,3.9,15.9c0,9.6-3.9,17.4-11.9,23.3
			c-8,5.9-18.3,8.8-31.2,8.8c-13.7,0-24.8-3.1-33.2-9.4c-8.5-6.3-12.6-14.2-12.6-24.1h6.1c0.6,8.6,4.4,15.3,11.4,20
			s16.5,7.2,28.4,7.2c10.9,0,19.8-2.5,26.6-7.6C1581.3,589.3,1584.8,583.1,1584.8,575.9z"/>
		<path d="M1648.7,539.7l-0.2,0.2l-17.7,15.3V606h-6.1V432.2h6.1v116.4l14.4-13.6l55.6-51.4h8.7l-56.2,52.1L1713,606h-7.9
			L1648.7,539.7z"/>
		<path d="M1732.5,445.3c0-1.7,0.6-3.2,1.9-4.5c1.2-1.3,2.7-1.9,4.4-1.9s3.2,0.6,4.5,1.9s1.9,2.8,1.9,4.5s-0.6,3.2-1.9,4.4
			s-2.8,1.9-4.5,1.9s-3.2-0.6-4.4-1.9C1733,448.4,1732.5,447,1732.5,445.3z M1741.7,605.9h-6.1V483.5h6.1V605.9z"/>
		<path d="M1795.6,450.4v33h27.8v6.1h-27.8v87c0,8.7,1.4,15.1,4.3,19.2c2.8,4.2,7.5,6.3,14.2,6.3c3.4,0,7.3-0.3,12-1l1,5.8
			c-2.4,0.9-6.7,1.4-12.7,1.4c-8.9,0-15.3-2.4-19.1-7.4c-3.8-5-5.8-12.7-5.9-23.4v-87.8h-22.6v-6.1h22.6v-33L1795.6,450.4
			L1795.6,450.4z"/>
		<path d="M1895.8,533.6h-53.2v-6.1h53.2V533.6z"/>
		<path d="M2004.6,616.9c0.6-2.8,1.2-6.6,1-11.4c0-6.3,0-12.5,0-18.8c-4.2,7-10,12.3-17.1,16c-7.2,3.7-15.4,5.6-24.4,5.6
			c-14.1,0-25.4-5.6-33.6-16.9c-8.2-11.2-12.3-26.6-12.3-46.2v-1.6c0-19.6,4.1-34.8,12.3-45.8s19.5-16.5,33.8-16.5
			c9.2,0,17.3,2.1,24.3,6.3s12.7,10.3,17,18.4v-22.4h6.3v120.2c0.1,5.3-0.5,9.7-1,13 M2004.2,635.4c-2,3.2-3.9,5.4-4.9,6.4
			c0,0-3.4,3.7-7.6,6.6c-7.2,4.7-15.9,7.1-26.2,7.1c-8.2,0-15.8-1.7-22.6-5.3c-6.8-3.6-16.9-11.5-20.6-19.3l3.6-4.6
			c4.6,8.3,13.9,15.2,19.5,18.4c5.7,3.2,12.3,4.7,19.9,4.7c12.6,0,22.4-3.8,29.4-11.5c0.2-0.2,1-1.2,2.1-2.4 M1924.3,546
			c0,17.5,3.5,31.3,10.4,41.2c7,10,16.7,14.9,29.2,14.9c10.3,0,19.1-2.4,26.4-7.2c7.3-4.7,12.4-11.5,15.4-20.2v-55.5
			c-6.6-21.2-20.5-31.7-41.5-31.7c-12.6,0-22.4,5-29.3,14.8C1927.8,512.3,1924.3,526.7,1924.3,546z"/>
		<path d="M2095,608.2c-9.8,0-19-2.7-27.2-8c-8.2-5.3-14.7-12.6-19.3-21.9c-4.6-9.3-7.1-19.6-7.1-30.9v-5.1
			c0-11.4,2.3-21.7,6.8-31.2c4.5-9.4,10.8-16.8,18.7-22c7.9-5.3,16.6-7.9,25.9-7.9c13.7,0,24.8,4.9,33.5,14.6
			c8.7,9.7,13,22.5,13,38.3v6.5h-91.8v6.7c0,10,2.1,19.1,6.3,27.6c4.2,8.5,10,15.1,17.3,19.9s15.3,7.2,24,7.2c8.2,0,15.2-1.4,21-4.1
			c5.8-2.7,10.9-7,15.3-12.6l4.3,3C2126.5,601.6,2112.9,608.2,2095,608.2z M2092.8,487.3c-11.9,0-22,4.4-30.4,13.3
			c-8.3,8.9-13.2,20.2-14.6,33.8h85.3V533c0-8.3-1.7-16-5.2-23.2c-3.5-7.2-8.3-12.6-14.5-16.7
			C2107.2,489.3,2100.3,487.3,2092.8,487.3z"/>
		<path d="M2173.8,512c4.1-9.5,9.8-17,17.6-22.5c7.8-5.6,16.3-8.2,25.8-8.2c13.1,0,22.8,3.7,29.2,11.1s9.6,18.7,9.6,33.7V606h-6.1
			v-80.1c-0.1-13.1-2.8-22.8-8-29.1c-5.3-6.3-13.7-9.4-25.1-9.4c-10.5,0-19.7,3.7-27.5,11.2c-7.8,7.5-13,17.1-15.6,29V606h-6.1
			V483.5h6.1L2173.8,512L2173.8,512z"/>
		<path d="M2338.6,608.2c-9.8,0-19-2.7-27.2-8c-8.2-5.3-14.7-12.6-19.3-21.9c-4.6-9.3-7.1-19.6-7.1-30.9v-5.1
			c0-11.4,2.3-21.7,6.8-31.2c4.5-9.4,10.8-16.8,18.7-22c7.9-5.3,16.6-7.9,25.9-7.9c13.7,0,24.8,4.9,33.5,14.6
			c8.7,9.7,13,22.5,13,38.3v6.5h-91.8v6.7c0,10,2.1,19.1,6.3,27.6c4.2,8.5,10,15.1,17.3,19.9c7.3,4.9,15.3,7.2,24,7.2
			c8.2,0,15.2-1.4,21-4.1c5.8-2.7,10.9-7,15.3-12.6l4.3,3C2370,601.6,2356.5,608.2,2338.6,608.2z M2336.3,487.3
			c-11.9,0-22,4.4-30.4,13.3c-8.3,8.9-13.2,20.2-14.6,33.8h85.3V533c0-8.3-1.7-16-5.2-23.2c-3.5-7.2-8.3-12.6-14.5-16.7
			C2350.7,489.3,2343.9,487.3,2336.3,487.3z"/>
		<path d="M2465.2,488l-7.9-0.7c-10.4,0-19.1,3.4-26.2,10.1c-7.1,6.7-11.6,16.2-13.8,28.3v80.2h-6.1V483.5h6.1V509
			c3.4-8.6,8.3-15.3,14.9-20.3c6.6-5,14.9-7.4,25-7.4c3.6,0,6.4,0.5,8.6,1.3L2465.2,488z"/>
		<path d="M2563.3,605.9c-1.5-5.2-2.3-12.6-2.3-22.4c-4.9,7.9-11.5,13.9-19.8,18.2c-8.3,4.3-17.8,6.5-28.4,6.5
			c-11.4,0-20.4-3.1-27.3-9.3c-7-6.1-10.3-14.1-10.3-24.1c0-11.2,5.1-20.3,15.2-27c10.2-6.7,23.6-10.2,40.4-10.3h30.2v-17.8
			c0-10.3-3.2-18.2-9.6-23.9c-6.4-5.7-15.6-8.5-27.7-8.5c-11.1,0-20.5,2.9-27.9,8.6c-7.4,5.7-11.2,12.9-11.2,21.3l-6.1-0.2
			c0-10,4.4-18.4,13.1-25.4c8.8-7,19.5-10.4,32.1-10.4c13.2,0,23.6,3.2,31.4,9.8c7.8,6.6,11.8,15.9,12,27.9v58.5
			c0,13.4,1,22.6,3.1,27.3v1L2563.3,605.9L2563.3,605.9z M2512.9,602c11.5,0,21.3-2.5,29.5-7.6c8.2-5.1,14.5-12.3,18.7-21.7v-29.1
			h-28.3c-17.5,0-30.9,3.5-40.2,10.4c-7.5,5.7-11.4,12.7-11.4,21.2c0,7.4,3,13.8,8.9,19C2496.2,599.5,2503.8,602,2512.9,602z"/>
		<path d="M2620.2,450.4v33h27.8v6.1h-27.8v87c0,8.7,1.4,15.1,4.3,19.2c2.8,4.2,7.5,6.3,14.2,6.3c3.4,0,7.3-0.3,12-1l1,5.8
			c-2.4,0.9-6.7,1.4-12.7,1.4c-8.9,0-15.3-2.4-19.1-7.4c-3.8-5-5.8-12.7-5.9-23.4v-87.8h-22.6v-6.1h22.6v-33L2620.2,450.4
			L2620.2,450.4z"/>
		<path d="M2668.3,542.3c0-11.7,2.2-22.2,6.7-31.5s10.8-16.6,19-21.8c8.2-5.2,17.5-7.8,27.8-7.8s19.5,2.5,27.6,7.5
			c8.1,5.1,14.5,12.2,19.1,21.5c4.5,9.3,6.8,19.7,7,31.4v5.4c0,11.8-2.2,22.2-6.7,31.5c-4.4,9.3-10.8,16.6-19,21.8
			s-17.5,7.8-27.8,7.8s-19.6-2.5-27.8-7.6c-8.2-5.1-14.5-12.3-19.1-21.5c-4.5-9.3-6.8-19.6-7-31.2v-5.6H2668.3z M2674.4,547
			c0,10.2,2,19.5,6,28c4.1,8.5,9.6,15.1,16.9,19.8c7.2,4.7,15.4,7.2,24.7,7.2c13.9,0,25.4-5.2,34.1-15.8c8.8-10.4,13.2-24,13.2-40.5
			v-3.5c0-10.1-2.1-19.3-6.1-27.8c-4.1-8.6-9.7-15.2-16.9-19.9c-7.2-4.7-15.4-7.2-24.4-7.2c-13.9,0-25.4,5.3-34.2,16
			c-8.8,10.7-13.2,24-13.2,40.2L2674.4,547L2674.4,547z"/>
		<path d="M2859.1,488l-7.9-0.7c-10.4,0-19.1,3.4-26.2,10.1c-7.1,6.7-11.6,16.2-13.8,28.3v80.2h-6.1V483.5h6.1V509
			c3.4-8.6,8.3-15.3,14.9-20.3c6.6-5,14.9-7.4,25-7.4c3.6,0,6.4,0.5,8.6,1.3L2859.1,488z"/>
	</g>
	
		<linearGradient id="Tracciato_barra_esterno_2_" gradientUnits="userSpaceOnUse" x1="1114.6222" y1="-368.7084" x2="3303.7917" y2="-368.7084" gradientTransform="matrix(1 0 0 1 0 994.3503)">
		<stop  offset="0" style="stop-color:#5898C5"/>
		<stop  offset="0.3221" style="stop-color:#F3B33F"/>
		<stop  offset="0.6634" style="stop-color:#71BB50"/>
		<stop  offset="1" style="stop-color:#E07565"/>
	</linearGradient>
	<path id="Tracciato_barra_esterno_1_" class="st8" d="M1114.6,634.5c0-5.9,0-11.7,0-17.6c426.5,0,1927,0,2189.2,0
		c0,5.9,0,11.7,0,17.6C3041.6,634.5,1541.1,634.5,1114.6,634.5z"/>
</g>
<g id="Guide" class="st9">
</g>
<g>
	<linearGradient id="SVGID_1_" gradientUnits="userSpaceOnUse" x1="2500.6853" y1="684.6171" x2="2521.2087" y2="684.6171">
		<stop  offset="0" style="stop-color:#2D2929"/>
		<stop  offset="1" style="stop-color:#3F3939"/>
	</linearGradient>
	<path class="st10" d="M2507.1,711.3v-35.2h-6.4v-1.9h6.4v-5.4c0-3.4,0.9-6.1,2.6-8c1.7-1.9,4.1-2.9,7.1-2.9c1.7,0,3.2,0.2,4.4,0.6
		l-0.3,1.8c-1.2-0.3-2.5-0.5-4.1-0.5c-2.4,0-4.4,0.8-5.8,2.4c-1.4,1.6-2.1,3.8-2.1,6.8v5.3h9.8v1.9h-9.8v35.2H2507.1z"/>
	<linearGradient id="SVGID_2_" gradientUnits="userSpaceOnUse" x1="2523.6072" y1="692.7546" x2="2556.0542" y2="692.7546">
		<stop  offset="0" style="stop-color:#2D2929"/>
		<stop  offset="1" style="stop-color:#3F3939"/>
	</linearGradient>
	<path class="st11" d="M2523.6,692c0-3.5,0.7-6.7,2-9.5c1.4-2.8,3.3-5,5.8-6.6s5.3-2.4,8.4-2.4c3.1,0,5.9,0.8,8.4,2.3
		c2.5,1.5,4.4,3.7,5.8,6.5c1.4,2.8,2.1,6,2.1,9.5v1.6c0,3.6-0.7,6.7-2,9.6c-1.3,2.8-3.3,5-5.7,6.6s-5.3,2.4-8.4,2.4
		c-3.1,0-5.9-0.8-8.4-2.3c-2.5-1.6-4.4-3.7-5.8-6.5c-1.4-2.8-2.1-5.9-2.1-9.4V692z M2525.5,693.5c0,3.1,0.6,5.9,1.8,8.5
		c1.2,2.6,2.9,4.6,5.1,6c2.2,1.4,4.7,2.2,7.5,2.2c4.2,0,7.7-1.6,10.3-4.8c2.7-3.2,4-7.3,4-12.3V692c0-3-0.6-5.8-1.9-8.4
		c-1.2-2.6-2.9-4.6-5.1-6c-2.2-1.4-4.7-2.2-7.4-2.2c-4.2,0-7.7,1.6-10.3,4.8c-2.7,3.2-4,7.3-4,12.2V693.5z"/>
	<linearGradient id="SVGID_3_" gradientUnits="userSpaceOnUse" x1="2565.0313" y1="692.412" x2="2581.5803" y2="692.412">
		<stop  offset="0" style="stop-color:#2D2929"/>
		<stop  offset="1" style="stop-color:#3F3939"/>
	</linearGradient>
	<path class="st12" d="M2581.4,675.6l-2.4-0.2c-3.2,0-5.8,1-7.9,3.1c-2.1,2-3.5,4.9-4.2,8.6v24.3h-1.9v-37.1h1.9v7.7
		c1-2.6,2.5-4.6,4.5-6.1c2-1.5,4.5-2.3,7.6-2.3c1.1,0,1.9,0.1,2.6,0.4L2581.4,675.6z"/>
	<linearGradient id="SVGID_4_" gradientUnits="userSpaceOnUse" x1="2606.2498" y1="686.3474" x2="2642.1917" y2="686.3474">
		<stop  offset="0" style="stop-color:#2D2929"/>
		<stop  offset="1" style="stop-color:#3F3939"/>
	</linearGradient>
	<path class="st13" d="M2642.2,711.3h-1.9l-32.2-46.7v46.7h-1.9v-49.9h1.9l32.2,46.6v-46.6h1.9V711.3z"/>
	<linearGradient id="SVGID_5_" gradientUnits="userSpaceOnUse" x1="2652.1279" y1="692.7546" x2="2684.575" y2="692.7546">
		<stop  offset="0" style="stop-color:#2D2929"/>
		<stop  offset="1" style="stop-color:#3F3939"/>
	</linearGradient>
	<path class="st14" d="M2652.1,692c0-3.5,0.7-6.7,2-9.5c1.4-2.8,3.3-5,5.8-6.6c2.5-1.6,5.3-2.4,8.4-2.4c3.1,0,5.9,0.8,8.4,2.3
		c2.5,1.5,4.4,3.7,5.8,6.5c1.4,2.8,2.1,6,2.1,9.5v1.6c0,3.6-0.7,6.7-2,9.6c-1.3,2.8-3.3,5-5.7,6.6c-2.5,1.6-5.3,2.4-8.4,2.4
		c-3.1,0-5.9-0.8-8.4-2.3c-2.5-1.6-4.4-3.7-5.8-6.5c-1.4-2.8-2.1-5.9-2.1-9.4V692z M2654,693.5c0,3.1,0.6,5.9,1.8,8.5
		c1.2,2.6,2.9,4.6,5.1,6c2.2,1.4,4.7,2.2,7.5,2.2c4.2,0,7.7-1.6,10.3-4.8c2.7-3.2,4-7.3,4-12.3V692c0-3-0.6-5.8-1.9-8.4
		c-1.2-2.6-2.9-4.6-5.1-6c-2.2-1.4-4.7-2.2-7.4-2.2c-4.2,0-7.7,1.6-10.3,4.8c-2.7,3.2-4,7.3-4,12.2V693.5z"/>
	<linearGradient id="SVGID_6_" gradientUnits="userSpaceOnUse" x1="2691.8389" y1="685.3195" x2="2720.2429" y2="685.3195">
		<stop  offset="0" style="stop-color:#2D2929"/>
		<stop  offset="1" style="stop-color:#3F3939"/>
	</linearGradient>
	<path class="st15" d="M2691.8,692.4c0-5.9,1.2-10.5,3.7-13.9c2.5-3.3,5.9-5,10.2-5c2.8,0,5.2,0.6,7.4,1.9c2.1,1.3,3.9,3.1,5.2,5.6
		v-22.4h1.9v52.6h-1.9v-5.9c-1.3,2.1-3,3.7-5.2,4.9c-2.2,1.2-4.7,1.7-7.5,1.7c-4.3,0-7.7-1.7-10.2-5.1c-2.5-3.4-3.7-8.1-3.7-14
		V692.4z M2693.8,693.1c0,5.3,1,9.4,3.1,12.5c2.1,3,5,4.6,8.8,4.6c3.1,0,5.7-0.7,7.8-2c2.2-1.4,3.8-3.4,4.8-6v-17.4
		c-2.1-6.2-6.3-9.4-12.6-9.4c-3.8,0-6.7,1.5-8.9,4.5C2694.8,682.9,2693.8,687.3,2693.8,693.1z"/>
	<linearGradient id="SVGID_7_" gradientUnits="userSpaceOnUse" x1="2729.0483" y1="692.7546" x2="2758.686" y2="692.7546">
		<stop  offset="0" style="stop-color:#2D2929"/>
		<stop  offset="1" style="stop-color:#3F3939"/>
	</linearGradient>
	<path class="st16" d="M2745.3,712c-3,0-5.7-0.8-8.2-2.4c-2.5-1.6-4.5-3.8-5.9-6.6c-1.4-2.8-2.1-5.9-2.1-9.4V692
		c0-3.4,0.7-6.6,2.1-9.4c1.4-2.9,3.3-5.1,5.7-6.7c2.4-1.6,5-2.4,7.8-2.4c4.1,0,7.5,1.5,10.1,4.4c2.6,2.9,3.9,6.8,3.9,11.6v2h-27.8v2
		c0,3,0.6,5.8,1.9,8.4c1.3,2.6,3,4.6,5.2,6s4.6,2.2,7.2,2.2c2.5,0,4.6-0.4,6.4-1.2c1.7-0.8,3.3-2.1,4.6-3.8l1.3,0.9
		C2754.8,710,2750.7,712,2745.3,712z M2744.6,675.4c-3.6,0-6.7,1.3-9.2,4c-2.5,2.7-4,6.1-4.4,10.3h25.8v-0.4c0-2.5-0.5-4.8-1.6-7
		c-1.1-2.2-2.5-3.8-4.4-5C2749,676,2746.9,675.4,2744.6,675.4z"/>
	<linearGradient id="SVGID_8_" gradientUnits="userSpaceOnUse" x1="2766.4636" y1="709.5949" x2="2770.2668" y2="709.5949">
		<stop  offset="0" style="stop-color:#2D2929"/>
		<stop  offset="1" style="stop-color:#3F3939"/>
	</linearGradient>
	<path class="st17" d="M2766.5,709.6c0-0.5,0.2-1,0.5-1.4c0.4-0.4,0.8-0.6,1.3-0.6c0.5,0,1,0.2,1.4,0.6c0.4,0.4,0.6,0.8,0.6,1.4
		c0,0.5-0.2,1-0.6,1.3c-0.4,0.4-0.8,0.5-1.4,0.5c-0.5,0-1-0.2-1.3-0.5C2766.6,710.6,2766.5,710.1,2766.5,709.6z"/>
	<linearGradient id="SVGID_9_" gradientUnits="userSpaceOnUse" x1="2779.5522" y1="686.6901" x2="2808.3333" y2="686.6901">
		<stop  offset="0" style="stop-color:#2D2929"/>
		<stop  offset="1" style="stop-color:#3F3939"/>
	</linearGradient>
	<path class="st18" d="M2806.5,661.4h1.9v34.7c0,4.8-1.3,8.7-3.9,11.5c-2.6,2.9-6.1,4.3-10.5,4.3c-4.7,0-8.2-1.2-10.7-3.7
		c-2.5-2.5-3.7-6.1-3.7-10.7h1.9c0,4.1,1,7.2,3.1,9.3c2.1,2.2,5.2,3.2,9.4,3.2c3.7,0,6.6-1.2,9-3.7c2.3-2.4,3.5-5.8,3.6-10V661.4z"
		/>
	<linearGradient id="SVGID_10_" gradientUnits="userSpaceOnUse" x1="2818.3037" y1="686.3474" x2="2853.6289" y2="686.3474">
		<stop  offset="0" style="stop-color:#2D2929"/>
		<stop  offset="1" style="stop-color:#3F3939"/>
	</linearGradient>
	<path class="st19" d="M2851.7,699.3c0-2.1-0.5-3.9-1.5-5.4s-2.6-2.8-4.7-3.9c-2.1-1.1-5.4-2.3-9.7-3.5c-4.3-1.2-7.6-2.4-9.7-3.6
		c-2.2-1.2-3.7-2.6-4.7-4.2c-1-1.6-1.5-3.5-1.5-5.8c0-3.6,1.5-6.6,4.6-8.8c3.1-2.2,7-3.4,12-3.4c3.2,0,6.1,0.6,8.6,1.9
		c2.5,1.2,4.5,3,5.9,5.2c1.4,2.3,2.1,4.8,2.1,7.6h-1.9c0-3.7-1.4-6.8-4.1-9.2s-6.3-3.6-10.7-3.6c-4.4,0-7.9,1-10.6,2.9
		s-4.1,4.4-4.1,7.3c0,3,1.2,5.4,3.5,7.2c2.4,1.8,6.2,3.4,11.6,4.8s9.4,3,11.9,4.9c3.2,2.4,4.8,5.5,4.8,9.5c0,2.5-0.7,4.7-2.1,6.7
		c-1.4,1.9-3.4,3.4-6,4.5s-5.5,1.6-8.8,1.6c-3.6,0-6.9-0.6-9.7-1.8c-2.9-1.2-5-2.9-6.5-5.1c-1.5-2.2-2.2-4.8-2.2-7.8h1.9
		c0,4.1,1.5,7.3,4.6,9.5c3.1,2.3,7,3.4,12,3.4c4.4,0,8-1,10.8-3C2850.3,705.1,2851.7,702.5,2851.7,699.3z"/>
</g>
</svg>
